HIERARCHY
ROOT root
{
	OFFSET 0.000000 0.000000 0.000000
	CHANNELS 6 Xposition Yposition Zposition Zrotation Yrotation Xrotation
	JOINT lhip
	{
		OFFSET 0.058581 -0.082280 -0.017664
		CHANNELS 3 Zrotation Yrotation Xrotation
		JOINT lknee
		{
			OFFSET 0.043451 -0.386469 0.008037
			CHANNELS 3 Zrotation Yrotation Xrotation
			JOINT lankle
			{
				OFFSET -0.014790 -0.426874 -0.037428
				CHANNELS 3 Zrotation Yrotation Xrotation
				JOINT ltoe
				{
					OFFSET 0.041054 -0.060286 0.122042
					CHANNELS 3 Zrotation Yrotation Xrotation
					End Site
					{
						OFFSET 0.000000 0.000000 0.000000
					}
				}
			}
		}
	}
	JOINT rhip
	{
		OFFSET -0.060310 -0.090513 -0.013543
		CHANNELS 3 Zrotation Yrotation Xrotation
		JOINT rknee
		{
			OFFSET -0.043257 -0.383688 -0.004843
			CHANNELS 3 Zrotation Yrotation Xrotation
			JOINT rankle
			{
				OFFSET 0.019056 -0.420046 -0.034562
				CHANNELS 3 Zrotation Yrotation Xrotation
				JOINT rtoe
				{
					OFFSET -0.034840 -0.062106 0.130323
					CHANNELS 3 Zrotation Yrotation Xrotation
					End Site
					{
						OFFSET 0.000000 0.000000 0.000000
					}
				}
			}
		}
	}
	JOINT lowerback
	{
		OFFSET 0.004439 0.124404 -0.038385
		CHANNELS 3 Zrotation Yrotation Xrotation
		JOINT upperback
		{
			OFFSET 0.004488 0.137956 0.026820
			CHANNELS 3 Zrotation Yrotation Xrotation
			JOINT chest
			{
				OFFSET -0.002265 0.056032 0.002855
				CHANNELS 3 Zrotation Yrotation Xrotation
				JOINT lowerneck
				{
					OFFSET -0.013390 0.211636 -0.033468
					CHANNELS 3 Zrotation Yrotation Xrotation
					JOINT upperneck
					{
						OFFSET 0.010113 0.088937 0.050410
						CHANNELS 3 Zrotation Yrotation Xrotation
						End Site
						{
							OFFSET 0.000000 0.000000 0.000000
						}
					}
				}
				JOINT lclavicle
				{
					OFFSET 0.071702 0.114000 -0.018898
					CHANNELS 3 Zrotation Yrotation Xrotation
					JOINT lshoulder
					{
						OFFSET 0.122921 0.045205 -0.019046
						CHANNELS 3 Zrotation Yrotation Xrotation
						JOINT lelbow
						{
							OFFSET 0.255332 -0.015649 -0.022946
							CHANNELS 3 Zrotation Yrotation Xrotation
							JOINT lwrist
							{
								OFFSET 0.265709 0.012698 -0.007375
								CHANNELS 3 Zrotation Yrotation Xrotation
								End Site
								{
									OFFSET 0.000000 0.000000 0.000000
								}
							}
						}
					}
				}
				JOINT rclavicle
				{
					OFFSET -0.082954 0.112472 -0.023707
					CHANNELS 3 Zrotation Yrotation Xrotation
					JOINT rshoulder
					{
						OFFSET -0.113228 0.046853 -0.008472
						CHANNELS 3 Zrotation Yrotation Xrotation
						JOINT relbow
						{
							OFFSET -0.260127 -0.014369 -0.031269
							CHANNELS 3 Zrotation Yrotation Xrotation
							JOINT rwrist
							{
								OFFSET -0.269108 0.006794 -0.006027
								CHANNELS 3 Zrotation Yrotation Xrotation
								End Site
								{
									OFFSET 0.000000 0.000000 0.000000
								}
							}
						}
					}
				}
			}
		}
	}
}
MOTION
Frames: 8
Frame Time: 0.033333
0.027487 0.832830 0.974333 95.288874 3.577888 82.904477 2.665143 8.284494 8.501668 -3.092331 2.323993 8.747856 6.206545 13.263841 -19.946252 0.000000 -0.000000 0.000000 -2.668845 -2.838604 -8.902371 0.093281 1.166958 20.136252 5.573325 -3.350672 -7.837678 0.000000 -0.000000 0.000000 -0.273016 -2.300639 4.121965 1.403073 -2.640902 1.621717 -1.278095 -2.369028 2.393077 4.777702 -10.887447 -6.507699 4.066381 -11.050292 -1.448982 -26.765987 9.831726 -1.131854 -64.316707 -5.058530 8.802355 9.914443 -22.492070 6.914238 -3.371187 -2.801634 -8.438634 25.954397 -7.260841 -2.821757 60.688379 -2.988997 14.047350 -9.932312 30.494150 11.091599 13.395737 2.952307 9.241297 
0.026451 0.833044 0.974105 95.487670 3.584381 82.908951 2.727223 8.044579 8.540803 -3.470141 1.933922 8.534922 6.130696 13.527977 -19.922230 0.000000 -0.000000 0.000000 -2.660138 -2.699057 -9.102039 0.154397 1.417468 20.504349 5.688661 -3.980675 -8.341132 0.000000 -0.000000 0.000000 -0.341717 -2.604685 4.195461 1.215031 -2.596410 1.663712 -1.337655 -2.338957 2.592824 4.981949 -11.704580 -7.083114 4.460675 -11.529436 -0.788014 -26.419042 9.556052 -0.960350 -64.469877 -5.246232 8.957601 9.548215 -23.621898 6.904731 -3.351576 -2.502479 -10.231435 25.663957 -7.052998 -2.796294 61.421153 -2.926450 14.038874 -10.169545 31.036918 10.755502 14.031869 2.745562 8.408781 
0.025594 0.833297 0.973865 95.891811 3.593392 82.805239 2.859454 8.090578 8.659174 -3.655752 1.630803 8.495524 6.130422 13.407397 -20.138096 0.000000 -0.000000 0.000000 -2.722049 -2.753058 -9.121107 0.132447 1.302179 20.993586 5.842981 -4.126583 -8.415529 0.000000 -0.000000 0.000000 -0.503510 -2.708880 4.426538 1.263077 -2.769385 1.855387 -1.415432 -2.424375 2.596418 4.858880 -12.291824 -6.602456 5.297157 -12.184429 -1.617641 -26.324817 9.169099 -0.787825 -64.365279 -5.518082 9.326621 9.267360 -24.556979 6.793837 -2.056793 -2.153952 -11.129323 25.806454 -6.561568 -2.787238 61.573773 -3.181639 14.262691 -10.852867 32.372811 9.974314 12.433177 2.976446 8.336936 
0.023528 0.833674 0.973841 96.531415 3.501572 82.887723 2.793768 7.975824 8.452661 -3.804210 1.416716 8.535801 6.240164 13.091713 -20.117833 0.000000 -0.000000 0.000000 -2.918998 -2.921851 -9.794317 0.156283 1.194431 22.197110 6.070616 -4.253254 -8.803476 0.000000 -0.000000 0.000000 -0.780463 -2.680905 5.064965 1.365524 -2.902277 1.616947 -1.416046 -2.581207 2.564632 5.097333 -13.190738 -7.753595 5.094114 -13.772423 -0.125320 -26.448187 8.942687 -0.593749 -64.005618 -6.001798 9.446198 8.735670 -26.047916 6.731563 -2.181818 -2.609349 -11.859471 26.155583 -6.650138 -2.844325 61.441043 -3.134204 14.276832 -11.499958 34.451235 9.087309 12.368204 3.213825 8.294721 
0.021775 0.833614 0.973816 97.036019 3.446958 83.048360 2.647731 7.909521 7.923589 -3.799531 1.015009 8.951040 6.535924 13.160481 -20.002500 0.000000 -0.000000 0.000000 -3.020284 -2.935218 -10.556495 0.060460 0.975453 23.317222 6.165379 -4.451137 -9.094392 0.000000 -0.000000 0.000000 -0.984419 -2.774048 5.423089 1.472108 -2.989599 1.580037 -1.423145 -2.584848 2.715849 5.197586 -13.804257 -8.340096 5.209842 -15.061672 0.217350 -26.437998 8.680879 -0.431284 -63.928619 -6.261423 9.681283 8.755176 -27.430564 6.445890 -1.406019 -2.047760 -12.588905 26.181177 -6.794537 -3.102017 61.529124 -2.791965 14.268674 -11.648991 35.680205 8.922779 12.105196 3.064227 8.057692 
0.019597 0.833189 0.973814 97.456368 3.377488 83.234137 2.543339 7.643140 7.436135 -3.827098 1.069371 9.184809 6.913277 13.061662 -20.106467 0.000000 -0.000000 0.000000 -3.082141 -2.815079 -11.840837 -0.075507 0.709400 25.301047 6.299538 -4.598640 -9.502301 0.000000 -0.000000 0.000000 -1.229986 -2.843088 6.145306 1.578642 -2.983106 1.490707 -1.445565 -2.513395 2.638250 5.451060 -14.461224 -8.497653 5.496784 -16.201747 0.386005 -26.205366 8.603833 -0.322062 -63.842468 -6.288602 10.141941 8.323967 -29.471189 7.038621 -1.267626 -2.168292 -13.347650 26.358602 -6.644291 -3.364662 61.402424 -2.445732 14.499088 -12.164535 37.390533 8.515277 12.001361 3.307320 8.180301 
0.018025 0.832713 0.974080 97.828186 3.241037 83.010643 2.496226 7.795977 7.635058 -3.890470 0.572973 9.096078 6.726215 12.916955 -20.141080 0.000000 -0.000000 0.000000 -3.321252 -2.725436 -12.700561 -0.091815 0.483822 27.392344 6.358757 -4.836604 -11.023209 0.000000 -0.000000 0.000000 -1.471702 -2.939452 7.162752 1.633447 -2.828988 1.578593 -1.509942 -2.352900 2.750305 5.809919 -15.245708 -8.942375 5.389084 -17.904168 0.968541 -25.807855 8.238693 -0.106844 -64.051062 -6.598866 10.451073 8.377419 -31.156378 6.604016 0.528086 -1.892027 -14.584591 26.489644 -5.724730 -3.208738 61.489220 -1.624524 14.804136 -13.380853 38.546032 7.158024 10.532916 3.369873 7.946694 
0.016491 0.831952 0.974593 98.183491 3.105495 83.066267 2.356461 7.875454 7.366161 -3.800473 0.412993 9.326469 6.649426 12.685462 -20.200554 0.000000 -0.000000 0.000000 -3.362825 -2.823949 -13.866295 -0.310490 0.591926 29.232800 5.711170 -5.039645 -12.087797 0.000000 -0.000000 0.000000 -1.551095 -2.987178 8.006491 1.690527 -2.678062 1.831395 -1.592675 -2.160573 2.789374 5.856878 -16.055777 -8.922327 5.561403 -19.177015 0.922910 -25.861572 7.936174 -0.101676 -63.599031 -6.637113 10.813788 8.184368 -33.533183 6.691916 0.874461 -1.436417 -15.248161 26.909247 -4.973423 -3.451162 60.906205 -0.788701 14.851521 -14.247852 40.166404 6.421371 10.033563 3.441720 8.629205 
